<?xml version="1.0" encoding="UTF-8" standalone="no"?>
<!-- Created with Inkscape (http://www.inkscape.org/) -->

<svg
   version="1.1"
   id="svg2"
   width="1333.3333"
   height="1333.3333"
   viewBox="0 0 1333.3333 1333.3333"
   sodipodi:docname="avatar-icon11-vectorportal.eps"
   xmlns:inkscape="http://www.inkscape.org/namespaces/inkscape"
   xmlns:sodipodi="http://sodipodi.sourceforge.net/DTD/sodipodi-0.dtd"
   xmlns="http://www.w3.org/2000/svg"
   xmlns:svg="http://www.w3.org/2000/svg">
  <defs
     id="defs6" />
  <sodipodi:namedview
     id="namedview4"
     pagecolor="#ffffff"
     bordercolor="#000000"
     borderopacity="0.25"
     inkscape:showpageshadow="2"
     inkscape:pageopacity="0.0"
     inkscape:pagecheckerboard="0"
     inkscape:deskcolor="#d1d1d1" />
  <g
     id="g8"
     inkscape:groupmode="layer"
     inkscape:label="ink_ext_XXXXXX"
     transform="matrix(1.3333333,0,0,-1.3333333,0,1333.3333)">
    <g
       id="g10"
       transform="scale(0.1)">
      <path
         d="M 10000,0 H 0 V 10000 H 10000 V 0"
         style="fill:#ffffff;fill-opacity:1;fill-rule:evenodd;stroke:none"
         id="path12" />
      <path
         d="m 5000,1000 c 2203.14,0 4000.01,1796.87 4000.01,4000.01 C 9000.01,7203.13 7203.14,9000 5000,9000 2796.85,9000 999.984,7203.13 999.984,5000.01 999.984,2796.87 2796.85,1000 5000,1000"
         style="fill:#4bc093;fill-opacity:1;fill-rule:evenodd;stroke:none"
         id="path14" />
      <path
         d="m 5000,1000 c 2203.14,0 4000.01,1796.87 4000.01,4000.01 C 9000.01,7203.13 7203.14,9000 5000,9000 2796.85,9000 999.984,7203.13 999.984,5000.01 999.984,2796.87 2796.85,1000 5000,1000 Z"
         style="fill:none;stroke:#211d1d;stroke-width:183.816;stroke-linecap:round;stroke-linejoin:round;stroke-miterlimit:2.6131;stroke-dasharray:none;stroke-opacity:1"
         id="path16" />
      <path
         d="m 5000,2766.45 c 1471.38,0 2671.46,1149.83 2671.46,2559.58 0,1409.77 -1200.08,2559.59 -2671.46,2559.59 -1471.39,0 -2671.47,-1149.82 -2671.47,-2559.59 0,-1409.75 1200.08,-2559.58 2671.47,-2559.58"
         style="fill:#211d1d;fill-opacity:1;fill-rule:evenodd;stroke:none"
         id="path18" />
      <path
         d="m 5000,2766.45 c 1471.38,0 2671.46,1149.83 2671.46,2559.58 0,1409.77 -1200.08,2559.59 -2671.46,2559.59 -1471.39,0 -2671.47,-1149.82 -2671.47,-2559.59 0,-1409.75 1200.08,-2559.58 2671.47,-2559.58 z"
         style="fill:none;stroke:#211d1d;stroke-width:183.816;stroke-linecap:butt;stroke-linejoin:miter;stroke-miterlimit:2.6131;stroke-dasharray:none;stroke-opacity:1"
         id="path20" />
      <path
         d="m 5000,3844.14 c 908.23,0 1648.97,737.1 1648.97,1640.79 0,903.73 -740.74,1640.82 -1648.97,1640.82 -908.24,0 -1648.98,-737.09 -1648.98,-1640.82 0,-903.69 740.74,-1640.79 1648.98,-1640.79"
         style="fill:#f46f35;fill-opacity:1;fill-rule:evenodd;stroke:none"
         id="path22" />
      <path
         d="m 6797.7,1429.25 c -540.49,-272.53 -1151.11,-426.2 -1797.73,-426.2 -646.62,0 -1257.24,153.67 -1797.73,426.2 -4.75,53.38 -7.32,107.33 -7.32,161.94 0,996.91 808.14,1805.05 1805.05,1805.05 996.91,0 1805.05,-808.14 1805.05,-1805.05 0,-54.61 -2.58,-108.56 -7.32,-161.94"
         style="fill:#fbd324;fill-opacity:1;fill-rule:evenodd;stroke:none"
         id="path24" />
      <path
         d="m 6797.7,1429.25 c -540.49,-272.53 -1151.11,-426.2 -1797.73,-426.2 -646.62,0 -1257.24,153.67 -1797.73,426.2 -4.75,53.38 -7.32,107.33 -7.32,161.94 0,996.91 808.14,1805.05 1805.05,1805.05 996.91,0 1805.05,-808.14 1805.05,-1805.05 0,-54.61 -2.58,-108.56 -7.32,-161.94 z"
         style="fill:none;stroke:#211d1d;stroke-width:183.816;stroke-linecap:round;stroke-linejoin:round;stroke-miterlimit:2.6131;stroke-dasharray:none;stroke-opacity:1"
         id="path26" />
      <path
         d="m 5000,2261.33 c 399.1,0 724.61,325.52 724.61,724.63 0,399.1 -325.51,724.61 -724.61,724.61 -399.11,0 -724.62,-325.51 -724.62,-724.61 0,-399.11 325.51,-724.63 724.62,-724.63"
         style="fill:#796246;fill-opacity:1;fill-rule:evenodd;stroke:none"
         id="path28" />
      <path
         d="m 5000,2261.33 c 399.1,0 724.61,325.52 724.61,724.63 0,399.1 -325.51,724.61 -724.61,724.61 -399.11,0 -724.62,-325.51 -724.62,-724.61 0,-399.11 325.51,-724.63 724.62,-724.63 z"
         style="fill:none;stroke:#211d1d;stroke-width:183.816;stroke-linecap:butt;stroke-linejoin:miter;stroke-miterlimit:2.6131;stroke-dasharray:none;stroke-opacity:1"
         id="path30" />
      <path
         d="m 6747.5,3833.3 c 249.59,0 453.19,203.59 453.19,453.19 0,249.6 -203.6,453.19 -453.19,453.19 -249.6,0 -453.19,-203.59 -453.19,-453.19 0,-249.6 203.59,-453.19 453.19,-453.19"
         style="fill:#796246;fill-opacity:1;fill-rule:evenodd;stroke:none"
         id="path32" />
      <path
         d="m 6747.5,3833.3 c 249.59,0 453.19,203.59 453.19,453.19 0,249.6 -203.6,453.19 -453.19,453.19 -249.6,0 -453.19,-203.59 -453.19,-453.19 0,-249.6 203.59,-453.19 453.19,-453.19 z"
         style="fill:none;stroke:#211d1d;stroke-width:183.816;stroke-linecap:round;stroke-linejoin:round;stroke-miterlimit:2.6131;stroke-dasharray:none;stroke-opacity:1"
         id="path34" />
      <path
         d="m 3252.49,3833.3 c 249.6,0 453.19,203.59 453.19,453.19 0,249.6 -203.59,453.19 -453.19,453.19 -249.59,0 -453.19,-203.59 -453.19,-453.19 0,-249.6 203.6,-453.19 453.19,-453.19"
         style="fill:#796246;fill-opacity:1;fill-rule:evenodd;stroke:none"
         id="path36" />
      <path
         d="m 3252.49,3833.3 c 249.6,0 453.19,203.59 453.19,453.19 0,249.6 -203.59,453.19 -453.19,453.19 -249.59,0 -453.19,-203.59 -453.19,-453.19 0,-249.6 203.6,-453.19 453.19,-453.19 z"
         style="fill:none;stroke:#211d1d;stroke-width:183.816;stroke-linecap:round;stroke-linejoin:round;stroke-miterlimit:2.6131;stroke-dasharray:none;stroke-opacity:1"
         id="path38" />
      <path
         d="m 5000,2968.76 c 987.05,0 1792.12,805.07 1792.12,1792.13 0,987.04 -805.07,1792.1 -1792.12,1792.1 -987.06,0 -1792.13,-805.06 -1792.13,-1792.1 0,-987.06 805.07,-1792.13 1792.13,-1792.13"
         style="fill:#796246;fill-opacity:1;fill-rule:evenodd;stroke:none"
         id="path40" />
      <path
         d="m 5000,2968.76 c 987.05,0 1792.12,805.07 1792.12,1792.13 0,987.04 -805.07,1792.1 -1792.12,1792.1 -987.06,0 -1792.13,-805.06 -1792.13,-1792.1 0,-987.06 805.07,-1792.13 1792.13,-1792.13 z"
         style="fill:none;stroke:#211d1d;stroke-width:183.816;stroke-linecap:butt;stroke-linejoin:miter;stroke-miterlimit:2.6131;stroke-dasharray:none;stroke-opacity:1"
         id="path42" />
      <path
         d="m 6496.18,5713.54 c -324.16,-282.71 -873.32,-468.59 -1496.21,-468.59 -622.89,0 -1172.05,185.88 -1496.22,468.59 345.17,447.98 886.93,736.73 1496.22,736.73 609.29,0 1151.06,-288.75 1496.21,-736.73"
         style="fill:#211d1d;fill-opacity:1;fill-rule:evenodd;stroke:none"
         id="path44" />
      <path
         d="m 6496.18,5713.54 c -324.16,-282.71 -873.32,-468.59 -1496.21,-468.59 -622.89,0 -1172.05,185.88 -1496.22,468.59 345.17,447.98 886.93,736.73 1496.22,736.73 609.29,0 1151.06,-288.75 1496.21,-736.73 z"
         style="fill:none;stroke:#211d1d;stroke-width:183.816;stroke-linecap:butt;stroke-linejoin:miter;stroke-miterlimit:2.6131;stroke-dasharray:none;stroke-opacity:1"
         id="path46" />
      <path
         d="m 4233.17,4053.86 c 128.13,0 232.64,104.51 232.64,232.63 0,128.13 -104.51,232.64 -232.64,232.64 -128.15,0 -232.64,-104.51 -232.64,-232.64 0,-128.12 104.49,-232.63 232.64,-232.63"
         style="fill:#211d1d;fill-opacity:1;fill-rule:evenodd;stroke:none"
         id="path48" />
      <path
         d="m 5766.79,4053.86 c 128.12,0 232.64,104.51 232.64,232.63 0,128.13 -104.52,232.64 -232.64,232.64 -128.14,0 -232.64,-104.51 -232.64,-232.64 0,-128.12 104.5,-232.63 232.64,-232.63"
         style="fill:#211d1d;fill-opacity:1;fill-rule:evenodd;stroke:none"
         id="path50" />
    </g>
  </g>
</svg>
